<svg width="17" height="15" viewBox="0 0 17 15" fill="none" xmlns="http://www.w3.org/2000/svg">
<path fill-rule="evenodd" clip-rule="evenodd" d="M0.70331 1.51945L6.29868 8.13597V12.5856C6.29868 12.8586 6.45291 13.1081 6.69708 13.2302L9.57996 14.6717C10.0592 14.9113 10.623 14.5628 10.623 14.027V8.13597L16.2184 1.51945C16.6145 1.051 16.2815 0.333344 15.668 0.333344H1.25363C0.640133 0.333344 0.307159 1.051 0.70331 1.51945ZM2.807 1.77477H14.1147L9.35196 7.40668C9.24193 7.53679 9.18156 7.70167 9.18156 7.87207V12.8609L7.74012 12.1402V7.87207C7.74012 7.70167 7.67974 7.53679 7.56972 7.40668L2.807 1.77477Z" fill="black"/>
</svg>
